<svg width="40" height="40" viewBox="0 0 40 40" fill="none" xmlns="http://www.w3.org/2000/svg" role="img" aria-label="KR Trans Fuels">
  <rect width="40" height="40" rx="11" fill="#1C6B5E"/>
  <path d="M20 8c3.6 4 6.4 7.3 6.4 11.4A6.4 6.4 0 0 1 20 25.8a6.4 6.4 0 0 1-6.4-6.4C13.6 15.3 16.4 12 20 8z" fill="#C7F23E"/>
  <path d="M20 14.5c1.7 1.9 3 3.5 3 5.4a3 3 0 0 1-6 0c0-1.9 1.3-3.5 3-5.4z" fill="#1C6B5E"/>
  <path d="M14 30.5c1.8 1.3 3.8 2 6 2s4.2-.7 6-2" stroke="#C7F23E" stroke-width="2" stroke-linecap="round"/>
</svg>
